<svg t="1641966391406" class="icon" viewBox="0 0 1247 1024" version="1.1" xmlns="http://www.w3.org/2000/svg" p-id="4805" width="400" height="400"><path d="M1080.421016 861.707144v55.586096h-134.574282v-55.586096zM1140.520723 757.648794v55.586097h-194.673989v-55.586097zM1146.35898 657.073775v55.586096h-200.512246v-55.586096z" p-id="4806"></path><path d="M1188.502366 563.121988h-287.595495a58.873182 58.873182 0 0 0-58.873182 58.873182v331.750382a58.873182 58.873182 0 0 0 58.873182 58.873183h287.644556a58.873182 58.873182 0 0 0 58.873183-58.873183v-331.750382a58.873182 58.873182 0 0 0-58.922244-58.873182z m10.744356 361.236034a39.248788 39.248788 0 0 1-39.248788 39.248788h-230.58663a39.248788 39.248788 0 0 1-39.248789-39.248788v-272.926261a39.248788 39.248788 0 0 1 39.248789-39.248788h230.58663a39.248788 39.248788 0 0 1 39.248788 39.248788z" p-id="4807"></path><path d="M748.081902 888.641625A444.541587 444.541587 0 1 1 956.689211 512.000442v2.649293l67.458855-1.177464v-1.471829a511.90232 511.90232 0 1 0-228.133581 426.143717z" p-id="4808"></path><path d="M723.698593 244.51995v535.157227h-63.141488V740.820877H360.156692v41.456532H299.566376V244.51995z m-363.541901 59.952524v155.670506h300.400413V304.472474z m300.400413 376.297757v-161.901252H360.156692v161.901252z" p-id="4809"></path></svg>